<?xml version="1.0" encoding="UTF-8"?>
<svg width="162px" height="162px" viewBox="0 0 162 162" version="1.1" xmlns="http://www.w3.org/2000/svg" xmlns:xlink="http://www.w3.org/1999/xlink">
    <title>ipad@256</title>
    <g id="ipad" stroke="none" stroke-width="1" fill="none" fill-rule="evenodd">
        <path d="M134.026402,2 C137.713112,2 139.021893,2.45455671 140.362158,3.17133807 C141.856591,3.97056958 143.02943,5.14340933 143.828662,6.63784232 C144.545443,7.97810693 145,9.28688816 145,12.9735982 L145,12.9735982 L145,149.026402 C145,152.713112 144.545443,154.021893 143.828662,155.362158 C143.02943,156.856591 141.856591,158.02943 140.362158,158.828662 C139.021893,159.545443 137.713112,160 134.026402,160 L134.026402,160 L27.9735982,160 C24.2868882,160 22.9781069,159.545443 21.6378423,158.828662 C20.1434093,158.02943 18.9705696,156.856591 18.1713381,155.362158 C17.4545567,154.021893 17,152.713112 17,149.026402 L17,149.026402 L17,12.9735982 C17,9.28688816 17.4545567,7.97810693 18.1713381,6.63784232 C18.9705696,5.14340933 20.1434093,3.97056958 21.6378423,3.17133807 C22.9781069,2.45455671 24.2868882,2 27.9735982,2 L27.9735982,2 L27.9735982,2 Z" id="Rectangle" stroke="#FFFFFF" stroke-width="4"></path>
        <path d="M81.4205395,65.032458 C78.8020501,65.032458 74.748772,62.0726773 70.4802757,62.1796573 C64.84873,62.2509774 59.6834907,65.4247181 56.7780436,70.4527793 C50.9312797,80.5445618 55.2715155,95.4504454 60.9748006,103.652247 C63.7726385,107.646168 67.0726525,112.139329 71.448758,111.996689 C75.645515,111.818389 77.2237825,109.286529 82.3172824,109.286529 C87.3749125,109.286529 88.8097012,111.996689 93.2575462,111.889709 C97.7771306,111.818389 100.646708,107.824468 103.408676,103.794887 C106.601081,99.1590863 107.928261,94.6659252 108,94.4163051 C107.892391,94.3806451 99.2119193,91.0642643 99.1043101,81.0794619 C99.0325707,72.7350199 105.955426,68.7410989 106.278254,68.5627989 C102.332585,62.8215375 96.2706024,62.1796573 94.1542891,62.0370173 C88.6303526,61.6090972 84.0031591,65.032458 81.4205395,65.032458 L81.4205395,65.032458 Z M90.5961058,56.3701346 C92.8535896,53.6282007 94.3470019,49.7965239 93.9302357,46 C90.7002973,46.140612 86.810479,48.1794859 84.4835342,50.9214198 C82.399703,53.3469767 80.5937159,57.2489596 81.0799432,60.9751774 C84.6571868,61.2564014 88.3386219,59.1120685 90.5961058,56.3701346" id="Shape" fill="#FFFFFF" fill-rule="nonzero"></path>
    </g>
</svg>